<svg width="960" height="320" viewBox="0 0 960 320" fill="none" xmlns="http://www.w3.org/2000/svg" role="img" aria-labelledby="logoTitle logoDesc">
  <title id="logoTitle">Kanban Bloom logo white text</title>
  <desc id="logoDesc">A rounded kanban board mark with three columns and a blooming card accent next to the words Kanban Bloom in white.</desc>
  <defs>
    <linearGradient id="boardGradient" x1="58" y1="48" x2="254" y2="252" gradientUnits="userSpaceOnUse">
      <stop stop-color="#6D5EF9"/>
      <stop offset="1" stop-color="#4338CA"/>
    </linearGradient>
    <linearGradient id="petalGradient" x1="164" y1="124" x2="244" y2="214" gradientUnits="userSpaceOnUse">
      <stop stop-color="#9AE6C5"/>
      <stop offset="1" stop-color="#38B18A"/>
    </linearGradient>
    <linearGradient id="cardGradient" x1="78" y1="76" x2="170" y2="188" gradientUnits="userSpaceOnUse">
      <stop stop-color="#FFFFFF"/>
      <stop offset="1" stop-color="#EDE9FE"/>
    </linearGradient>
    <filter id="softShadow" x="20" y="28" width="262" height="264" filterUnits="userSpaceOnUse" color-interpolation-filters="sRGB">
      <feFlood flood-opacity="0" result="BackgroundImageFix"/>
      <feColorMatrix in="SourceAlpha" type="matrix" values="0 0 0 0 0 0 0 0 0 0 0 0 0 0 0 0 0 0 127 0" result="hardAlpha"/>
      <feOffset dy="18"/>
      <feGaussianBlur stdDeviation="14"/>
      <feColorMatrix type="matrix" values="0 0 0 0 0.262745 0 0 0 0 0.219608 0 0 0 0 0.792157 0 0 0 0.22 0"/>
      <feBlend mode="normal" in2="BackgroundImageFix" result="effect1_dropShadow_1_1"/>
      <feBlend mode="normal" in="SourceGraphic" in2="effect1_dropShadow_1_1" result="shape"/>
    </filter>
  </defs>

  <g filter="url(#softShadow)">
    <rect x="48" y="48" width="206" height="206" rx="52" fill="url(#boardGradient)"/>
    <rect x="72" y="78" width="38" height="146" rx="19" fill="#FFFFFF" fill-opacity="0.18"/>
    <rect x="132" y="78" width="38" height="146" rx="19" fill="#FFFFFF" fill-opacity="0.18"/>
    <rect x="192" y="78" width="38" height="146" rx="19" fill="#FFFFFF" fill-opacity="0.18"/>

    <g transform="rotate(-10 130 149)">
      <rect x="82" y="104" width="92" height="90" rx="24" fill="url(#cardGradient)"/>
      <rect x="100" y="126" width="56" height="10" rx="5" fill="#6D5EF9" fill-opacity="0.92"/>
      <rect x="100" y="145" width="44" height="8" rx="4" fill="#B8B0FF"/>
      <rect x="100" y="161" width="34" height="8" rx="4" fill="#CFC9FF"/>
    </g>

    <path d="M213.815 111.332C233.971 119.246 244.271 142.027 236.828 162.738C229.385 183.448 207.015 194.245 186.858 186.331C198.695 177.519 210.976 165.738 217.32 148.091C223.664 130.444 220.33 113.603 213.815 111.332Z" fill="url(#petalGradient)"/>
    <path d="M198.697 98.115C214.274 91.833 232.148 98.862 239.989 114.067C247.83 129.272 242.666 148.27 228.454 157.954C228.09 144.941 224.357 131.3 217.681 118.351C211.005 105.402 201.935 96.392 198.697 98.115Z" fill="#B7F3D5" fill-opacity="0.92"/>
    <circle cx="205.5" cy="146.5" r="14.5" fill="#FFF8D6"/>
    <circle cx="205.5" cy="146.5" r="7" fill="#F7C948"/>
  </g>

  <g fill="#FFFFFF">
    <path d="M352.196 93.312H387.796V154.896L446.18 93.312H491.62L424.676 161.04L495.652 250H449.156L399.908 186.472L387.796 198.584V250H352.196V93.312Z"/>
    <path d="M558.652 250L555.772 236.464C546.892 247.808 533.356 252.88 517.948 252.88C490.396 252.88 473.548 236.896 473.548 213.568C473.548 188.944 491.548 176.448 523.708 176.448H553.18V173.352C553.18 159.816 544.948 152.88 529.54 152.88C514.996 152.88 506.548 158.816 504.1 169.944H473.764C477.292 141.104 500.188 127.784 531.908 127.784C567.724 127.784 586.636 143.768 586.636 177.744V250H558.652ZM526.396 228.688C542.812 228.688 553.18 218.752 553.18 203.56V199.816H529.972C513.988 199.816 505.756 204.888 505.756 214.824C505.756 223.488 513.124 228.688 526.396 228.688Z"/>
    <path d="M608.923 250V130.664H640.643V145.64C647.363 134.944 658.923 127.784 676.059 127.784C700.035 127.784 715.659 141.536 715.659 169.088V250H683.939V176.232C683.939 161.472 676.787 154.32 664.507 154.32C650.971 154.32 640.643 164.256 640.643 180.672V250H608.923Z"/>
    <path d="M739.371 250V83.952H771.091V145.208C778.027 134.296 790.091 127.784 806.939 127.784C837.795 127.784 860.043 152.232 860.043 190.12C860.043 227.792 837.795 252.88 807.155 252.88C789.803 252.88 777.523 245.504 770.155 233.296V250H739.371ZM799.571 226.488C817.579 226.488 827.819 212.52 827.819 190.336C827.819 168.152 817.579 154.176 799.571 154.176C781.571 154.176 770.803 168.152 770.803 190.336C770.803 212.52 781.571 226.488 799.571 226.488Z"/>
    <path d="M881.671 250V83.952H913.391V250H881.671Z"/>
  </g>

  <g fill="#38B18A">
    <path d="M353.744 276V266.4H360.752C363.216 266.4 365.064 267.72 365.064 270.192C365.064 271.944 364.144 273.168 362.736 273.736C364.616 274.24 365.824 275.68 365.824 277.744C365.824 280.68 363.632 282.4 360.528 282.4H353.744V276ZM357.216 272.624H360.072C361.288 272.624 362.024 271.992 362.024 270.92C362.024 269.888 361.288 269.272 360.072 269.272H357.216V272.624ZM357.216 279.528H360.28C361.752 279.528 362.592 278.808 362.592 277.616C362.592 276.424 361.752 275.68 360.28 275.68H357.216V279.528Z"/>
    <path d="M369.511 282.4V266.4H372.983V279.344H380.247V282.4H369.511Z"/>
    <path d="M382.915 274.4C382.915 269.56 386.259 266.152 390.939 266.152C395.619 266.152 398.955 269.56 398.955 274.4C398.955 279.24 395.619 282.648 390.939 282.648C386.259 282.648 382.915 279.24 382.915 274.4ZM386.483 274.4C386.483 277.344 388.283 279.48 390.939 279.48C393.595 279.48 395.395 277.344 395.395 274.4C395.395 271.456 393.595 269.32 390.939 269.32C388.283 269.32 386.483 271.456 386.483 274.4Z"/>
    <path d="M401.478 274.4C401.478 269.52 404.79 266.152 409.526 266.152C413.094 266.152 416.038 268.12 416.83 271.688H413.214C412.678 270.128 411.366 269.264 409.526 269.264C406.814 269.264 405.038 271.384 405.038 274.4C405.038 277.416 406.814 279.536 409.526 279.536C411.366 279.536 412.678 278.672 413.214 277.112H416.83C416.038 280.68 413.094 282.648 409.526 282.648C404.79 282.648 401.478 279.28 401.478 274.4Z"/>
    <path d="M420.042 282.4V266.4H423.514V273.072L429.506 266.4H433.77L427.538 273.168L434.242 282.4H429.954L425.154 275.728L423.514 277.472V282.4H420.042Z"/>
  </g>
</svg>
